<?xml version="1.0" encoding="utf-8"?>
<!-- Generator: Adobe Illustrator 16.0.4, SVG Export Plug-In . SVG Version: 6.00 Build 0)  -->
<!DOCTYPE svg PUBLIC "-//W3C//DTD SVG 1.1//EN" "http://www.w3.org/Graphics/SVG/1.1/DTD/svg11.dtd">
<svg version="1.1" id="Layer_1" xmlns="http://www.w3.org/2000/svg" xmlns:xlink="http://www.w3.org/1999/xlink" x="0px" y="0px"
	 width="1000px" height="1000px" viewBox="0 0 1000 1000" enable-background="new 0 0 1000 1000" xml:space="preserve">
<g>
	
		<image overflow="visible" opacity="0.92" width="6647" height="6577" xlink:href="D1E56156446F688C.png"  transform="matrix(0.24 0 0 0.24 -282.4614 -282.4619)">
	</image>
	<g>
		<g>
			<g>
				<polygon fill="#FB780F" points="232.616,282.461 265.846,315.692 282.462,299.077 				"/>
			</g>
			<g>
				<polygon fill="#EF5F00" points="232.616,282.461 265.846,315.692 265.846,348.923 				"/>
			</g>
			<g>
				<polygon fill="#F96B07" points="265.846,348.923 282.462,299.077 265.846,315.692 				"/>
			</g>
			<g>
				<polygon fill="#DD4300" points="265.846,348.923 315.693,382.154 282.462,299.077 				"/>
			</g>
			<g>
				<polygon fill="#FF7400" points="315.693,382.154 232.616,365.539 265.846,348.923 				"/>
			</g>
			<g>
				<polygon fill="#FF8F19" points="232.616,365.539 232.616,282.461 265.846,348.923 				"/>
			</g>
			<g>
				<polygon fill="#EE5100" points="232.616,282.461 265.846,249.231 282.462,299.077 				"/>
			</g>
			<g>
				<polygon fill="#ED5400" points="282.462,299.077 315.693,315.692 315.693,382.154 				"/>
			</g>
			<g>
				<polygon fill="#E15300" points="265.846,249.231 315.693,315.692 282.462,299.077 				"/>
			</g>
			<g>
				<polygon fill="#F46100" points="265.846,249.231 282.462,232.615 315.693,249.231 				"/>
			</g>
			<g>
				<polygon fill="#F25D0B" points="315.693,249.231 315.693,315.692 265.846,249.231 				"/>
			</g>
			<g>
				<polygon fill="#E96B00" points="315.693,315.692 365.539,332.308 315.693,348.923 				"/>
			</g>
			<g>
				<polygon fill="#F87E07" points="365.539,332.308 348.923,282.461 315.693,315.692 				"/>
			</g>
			<g>
				<polygon fill="#F25C01" points="348.923,282.461 315.693,249.231 315.693,315.692 				"/>
			</g>
			<g>
				<polygon fill="#EA5F03" points="315.693,382.154 365.539,332.308 315.693,348.923 				"/>
			</g>
			<g>
				<polygon fill="#FF7F09" points="282.462,232.615 332.308,199.385 315.693,249.231 				"/>
			</g>
			<g>
				<polygon fill="#E44D00" points="315.693,249.231 348.923,282.461 332.308,199.385 				"/>
			</g>
			<g>
				<polygon fill="#FF7400" points="348.923,282.461 398.769,249.231 365.539,332.308 				"/>
			</g>
			<g>
				<polygon fill="#DA3A00" points="332.308,199.385 365.539,166.154 365.539,199.385 				"/>
			</g>
			<g>
				<polygon fill="#E95300" points="365.539,199.385 348.923,282.461 332.308,199.385 				"/>
			</g>
			<g>
				<polygon fill="#EA6700" points="365.539,199.385 398.769,249.231 348.923,282.461 				"/>
			</g>
			<g>
				<polygon fill="#DC3D00" points="365.539,166.154 398.769,249.231 365.539,199.385 				"/>
			</g>
			<path fill="none" stroke="#FFFFFF" stroke-miterlimit="10" d="M432,216"/>
			<g>
				<polygon fill="#F69321" points="365.539,332.308 398.769,332.308 398.769,249.231 				"/>
			</g>
			<g>
				<polygon fill="#F47003" points="365.539,332.308 365.539,382.154 315.693,382.154 				"/>
			</g>
			<g>
				<polygon fill="#EB7307" points="365.539,382.154 398.769,332.308 365.539,332.308 				"/>
			</g>
			<g>
				<polygon fill="#FF9522" points="398.769,332.308 415.384,348.923 398.769,249.231 				"/>
			</g>
			<g>
				<polygon fill="#F87C07" points="415.384,348.923 365.539,382.154 398.769,332.308 				"/>
			</g>
			<g>
				<polygon fill="#EE6B00" points="415.384,348.923 448.616,315.692 398.769,249.231 				"/>
			</g>
			<g>
				<polygon fill="#DF4900" points="398.769,249.231 432,232.615 448.616,315.692 				"/>
			</g>
			<g>
				<polygon fill="#E74B07" points="432,232.615 365.539,166.154 398.769,249.231 				"/>
			</g>
			<g>
				<polygon fill="#EB6000" points="315.693,382.154 332.308,432 365.539,382.154 				"/>
			</g>
			<g>
				<polygon fill="#FF8819" points="332.308,432 398.769,448.615 365.539,382.154 				"/>
			</g>
			<g>
				<polygon fill="#EC5800" points="398.769,448.615 415.384,348.923 365.539,382.154 				"/>
			</g>
			<g>
				<polygon fill="#FFAA4D" points="232.616,365.539 182.769,348.923 232.616,282.461 				"/>
			</g>
			<g>
				<polygon fill="#FF8D20" points="182.769,348.923 166.154,398.769 232.616,365.539 				"/>
			</g>
			<g>
				<polygon fill="#F5830B" points="232.616,365.539 232.616,432 166.154,398.769 				"/>
			</g>
			<path fill="none" stroke="#FFFFFF" stroke-miterlimit="10" d="M232.616,432"/>
			<g>
				<polygon fill="#FC911F" points="232.616,465.231 232.616,365.539 315.693,382.154 				"/>
			</g>
			<g>
				<polygon fill="#E46E04" points="232.616,465.231 332.308,432 315.693,382.154 				"/>
			</g>
			<g>
				<polygon fill="#E86300" points="232.616,465.231 398.769,448.615 332.308,432 				"/>
			</g>
			<g>
				<polygon fill="#DD4100" points="365.539,166.154 432,149.539 398.769,199.385 				"/>
			</g>
			<g>
				<polygon fill="#DB4900" points="432,149.539 432,232.615 398.769,199.385 				"/>
			</g>
			<g>
				<polygon fill="#D03400" points="448.616,315.692 465.231,249.231 432,232.615 				"/>
			</g>
			<g>
				<polygon fill="#F05600" points="432,149.539 465.231,249.231 432,232.615 				"/>
			</g>
			<g>
				<polygon fill="#F89842" points="415.384,348.923 498.463,382.154 448.616,315.692 				"/>
			</g>
			<g>
				<polygon fill="#E85700" points="498.463,382.154 465.231,249.231 448.616,315.692 				"/>
			</g>
			<g>
				<polygon fill="#F55F0D" points="398.769,448.615 465.231,465.231 415.384,348.923 				"/>
			</g>
			<g>
				<polygon fill="#F16A00" points="465.231,465.231 498.463,382.154 415.384,348.923 				"/>
			</g>
			<g>
				<polygon fill="#FF6C14" points="465.231,249.231 531.693,216 448.616,199.385 				"/>
			</g>
			<g>
				<polygon fill="#F46800" points="432,149.539 531.693,216 448.616,199.385 				"/>
			</g>
			<g>
				<polygon fill="#F76005" points="498.463,382.154 564.924,365.539 531.693,299.077 				"/>
			</g>
			<g>
				<polygon fill="#E03E00" points="531.693,299.077 465.231,249.231 498.463,382.154 				"/>
			</g>
			<g>
				<polygon fill="#FA690D" points="531.693,216 531.693,299.077 465.231,249.231 				"/>
			</g>
			<g>
				<polygon fill="#FF7713" points="531.693,216 564.924,365.539 531.693,299.077 				"/>
			</g>
			<g>
				<polygon fill="#F15902" points="432,149.539 498.463,149.539 531.693,216 				"/>
			</g>
			<g>
				<polygon fill="#FD7005" points="531.693,216 581.539,182.769 498.463,149.539 				"/>
			</g>
			<g>
				<polygon fill="#FA6714" points="498.463,149.539 564.924,149.538 581.539,182.769 				"/>
			</g>
			<g>
				<polygon fill="#E65200" points="581.539,182.769 531.693,216 581.539,282.461 				"/>
			</g>
			<g>
				<polygon fill="#F67601" points="581.539,282.461 564.924,365.539 531.693,216 				"/>
			</g>
			<g>
				<polygon fill="#FF7109" points="564.924,149.538 614.77,149.538 581.539,182.769 				"/>
			</g>
			<g>
				<polygon fill="#FF6712" points="614.77,149.538 581.539,282.461 581.539,182.769 				"/>
			</g>
			<g>
				<polygon fill="#EF6400" points="581.539,282.461 614.77,282.461 598.154,216 				"/>
			</g>
			<g>
				<polygon fill="#FC8F1A" points="614.77,282.461 564.924,365.539 581.539,282.461 				"/>
			</g>
			<g>
				<polygon fill="#F25309" points="614.77,282.461 614.77,149.538 598.154,216 				"/>
			</g>
			<g>
				<polygon fill="#F27105" points="614.77,282.461 598.154,398.769 564.924,365.539 				"/>
			</g>
			<g>
				<polygon fill="#FFA730" points="598.154,398.769 498.463,382.154 564.924,365.539 				"/>
			</g>
			<g>
				<polygon fill="#FF7420" points="498.463,382.154 515.078,481.846 465.231,465.231 				"/>
			</g>
			<g>
				<polygon fill="#F05C00" points="515.078,481.846 548.309,415.384 498.463,382.154 				"/>
			</g>
			<g>
				<polygon fill="#E14800" points="548.309,415.384 598.154,398.769 498.463,382.154 				"/>
			</g>
			<g>
				<polygon fill="#D74100" points="598.154,398.769 515.078,481.846 548.309,415.384 				"/>
			</g>
			<g>
				<polygon fill="#F25E08" points="398.769,448.615 398.769,531.692 465.231,465.231 				"/>
			</g>
			<g>
				<polygon fill="#FB6300" points="398.769,531.692 398.769,448.615 299.078,515.077 				"/>
			</g>
			<g>
				<polygon fill="#EA5005" points="398.769,531.692 515.078,481.846 465.231,465.231 				"/>
			</g>
			<g>
				<polygon fill="#E04800" points="299.078,515.077 232.616,465.231 299.078,481.846 				"/>
			</g>
			<g>
				<polygon fill="#FF7B10" points="299.078,481.846 398.769,448.615 232.616,465.231 				"/>
			</g>
			<g>
				<polygon fill="#CF5100" points="299.078,481.846 299.078,515.077 398.769,448.615 				"/>
			</g>
			<g>
				<polygon fill="#FE7E17" points="166.154,398.769 232.616,465.231 232.616,432 				"/>
			</g>
			<g>
				<polygon fill="#E36500" points="232.616,465.231 199.384,515.076 166.154,398.769 				"/>
			</g>
			<g>
				<polygon fill="#EE6201" points="199.384,515.076 299.078,515.077 232.616,465.231 				"/>
			</g>
			<g>
				<polygon fill="#FF7410" points="614.77,149.538 681.23,182.769 614.77,199.384 				"/>
			</g>
			<g>
				<polygon fill="#F86C07" points="614.77,199.384 648,265.846 681.23,182.769 				"/>
			</g>
			<g>
				<polygon fill="#D13A00" points="648,265.846 614.77,282.461 614.77,199.384 				"/>
			</g>
			<g>
				<polygon fill="#D65100" points="648,265.846 614.77,282.461 631.385,348.923 				"/>
			</g>
			<g>
				<polygon fill="#E35D00" points="631.385,348.923 598.154,398.769 614.77,282.461 				"/>
			</g>
			<g>
				<polygon fill="#F04B02" points="631.385,348.923 648,348.923 648,265.846 				"/>
			</g>
			<g>
				<polygon fill="#F55E11" points="648,348.923 697.846,348.923 648,265.846 				"/>
			</g>
			<g>
				<polygon fill="#FF7916" points="697.846,348.923 648,265.846 697.846,282.461 				"/>
			</g>
			<g>
				<polygon fill="#EA5301" points="681.23,182.769 697.846,282.461 648,265.846 				"/>
			</g>
			<g>
				<polygon fill="#FA6704" points="631.385,348.923 648,415.384 697.846,348.923 				"/>
			</g>
			<g>
				<polygon fill="#EC6F01" points="648,415.384 598.154,398.769 631.385,348.923 				"/>
			</g>
			<g>
				<polygon fill="#FF7D00" points="648,415.384 598.154,465.23 598.154,398.769 				"/>
			</g>
			<g>
				<polygon fill="#E14808" points="598.154,465.23 515.078,481.846 598.154,398.769 				"/>
			</g>
			<g>
				<polygon fill="#F34F00" points="515.078,481.846 548.309,531.692 598.154,465.23 				"/>
			</g>
			<g>
				<polygon fill="#D64900" points="548.309,531.692 398.769,531.692 515.078,481.846 				"/>
			</g>
			<g>
				<polygon fill="#FD830B" points="166.154,398.769 166.154,531.692 199.384,515.076 				"/>
			</g>
			<g>
				<polygon fill="#FF8D16" points="166.154,531.692 299.078,515.077 199.384,515.076 				"/>
			</g>
			<g>
				<polygon fill="#FF9209" points="648,415.384 681.23,448.615 697.846,348.923 				"/>
			</g>
			<g>
				<polygon fill="#D73F00" points="681.23,448.615 598.154,465.23 648,415.384 				"/>
			</g>
			<g>
				<polygon fill="#D33400" points="598.154,465.23 648,548.308 681.23,448.615 				"/>
			</g>
			<g>
				<polygon fill="#DB3B05" points="648,548.308 548.309,531.692 598.154,465.23 				"/>
			</g>
			<g>
				<polygon fill="#E65300" points="681.23,182.769 747.693,216 697.846,282.461 				"/>
			</g>
			<g>
				<polygon fill="#EB5107" points="747.693,216 697.846,348.923 697.846,282.461 				"/>
			</g>
			<g>
				<polygon fill="#E13F05" points="747.693,216 797.539,299.077 747.693,332.308 				"/>
			</g>
			<g>
				<polygon fill="#FF7414" points="747.693,332.308 697.846,348.923 747.693,216 				"/>
			</g>
			<g>
				<polygon fill="#E46600" points="747.693,332.308 747.693,415.385 697.846,348.923 				"/>
			</g>
			<g>
				<polygon fill="#EC5700" points="747.693,415.385 797.539,299.077 747.693,332.308 				"/>
			</g>
			<g>
				<polygon fill="#FF710A" points="747.693,415.385 681.23,448.615 697.846,348.923 				"/>
			</g>
			<g>
				<polygon fill="#F97918" points="747.693,415.385 697.846,481.846 681.23,448.615 				"/>
			</g>
			<g>
				<polygon fill="#FF7113" points="697.846,481.846 648,548.308 681.23,448.615 				"/>
			</g>
			<g>
				<polygon fill="#F75303" points="697.846,481.846 731.078,515.076 747.693,415.385 				"/>
			</g>
			<g>
				<polygon fill="#DC3E03" points="731.078,515.076 648,548.308 697.846,481.846 				"/>
			</g>
			<g>
				<polygon fill="#F97409" points="747.693,415.385 764.309,465.23 797.539,398.769 				"/>
			</g>
			<g>
				<polygon fill="#E75800" points="797.539,398.769 797.539,299.077 747.693,415.385 				"/>
			</g>
			<g>
				<polygon fill="#F5710C" points="764.309,465.23 731.078,515.076 747.693,415.385 				"/>
			</g>
			<g>
				<polygon fill="#F56B00" points="764.309,465.23 797.539,481.846 797.539,398.769 				"/>
			</g>
			<g>
				<polygon fill="#FF731D" points="797.539,481.846 731.078,515.076 764.309,465.23 				"/>
			</g>
			<g>
				<polygon fill="#FF771E" points="747.693,216 830.77,299.077 797.539,299.077 				"/>
			</g>
			<g>
				<polygon fill="#FF8B20" points="830.77,299.077 797.539,398.769 797.539,299.077 				"/>
			</g>
			<g>
				<polygon fill="#F37D14" points="797.539,398.769 847.385,332.308 830.77,299.077 				"/>
			</g>
			<g>
				<polygon fill="#EF7309" points="797.539,398.769 847.385,398.77 847.385,332.308 				"/>
			</g>
			<g>
				<polygon fill="#FC9F40" points="847.385,398.77 880.615,415.385 847.385,332.308 				"/>
			</g>
			<g>
				<polygon fill="#F58917" points="880.615,415.385 797.539,398.769 847.385,398.77 				"/>
			</g>
			<g>
				<polygon fill="#FF8210" points="880.615,415.385 814.154,432 797.539,398.769 				"/>
			</g>
			<g>
				<polygon fill="#EF6200" points="814.154,432 797.539,398.769 797.539,481.846 				"/>
			</g>
			<g>
				<polygon fill="#FF8C20" points="797.539,481.846 880.615,415.385 814.154,432 				"/>
			</g>
			<g>
				<polygon fill="#F85C17" points="548.309,531.692 548.309,581.538 648,548.308 				"/>
			</g>
			<g>
				<polygon fill="#E9580A" points="548.309,581.538 465.231,531.692 548.309,531.692 				"/>
			</g>
			<g>
				<polygon fill="#F34F00" points="398.769,531.692 448.616,614.769 465.231,531.692 				"/>
			</g>
			<g>
				<polygon fill="#FF6A27" points="465.231,531.692 548.309,581.538 498.463,614.769 				"/>
			</g>
			<g>
				<polygon fill="#D73F00" points="498.463,614.769 448.616,614.769 465.231,531.692 				"/>
			</g>
			<g>
				<polygon fill="#F45E12" points="498.463,614.769 515.078,681.23 548.309,581.538 				"/>
			</g>
			<g>
				<polygon fill="#DC4309" points="515.078,681.23 448.616,614.769 498.463,614.769 				"/>
			</g>
			<g>
				<polygon fill="#FF8E13" points="166.154,531.692 166.154,598.153 199.384,614.769 				"/>
			</g>
			<g>
				<polygon fill="#FFA532" points="166.154,531.692 199.384,614.769 249.231,531.692 				"/>
			</g>
			<g>
				<polygon fill="#F9A64E" points="166.154,598.153 216,681.23 199.384,614.769 				"/>
			</g>
			<g>
				<polygon fill="#F69328" points="216,681.23 249.231,531.692 199.384,614.769 				"/>
			</g>
			<g>
				<polygon fill="#FA7C0D" points="249.231,531.692 265.847,598.153 282.462,548.308 				"/>
			</g>
			<g>
				<polygon fill="#EC7D15" points="249.231,531.692 265.847,598.153 216,681.23 				"/>
			</g>
			<g>
				<polygon fill="#E06203" points="265.847,598.153 299.078,631.385 282.462,548.308 				"/>
			</g>
			<g>
				<polygon fill="#FBAB56" points="299.078,631.385 216,681.23 265.847,598.153 				"/>
			</g>
			<g>
				<polygon fill="#FF6A0D" points="299.078,631.385 348.923,614.769 299.078,548.308 				"/>
			</g>
			<g>
				<polygon fill="#F97105" points="299.078,631.385 348.923,664.615 348.923,614.769 				"/>
			</g>
			<g>
				<polygon fill="#FB7001" points="348.923,614.769 299.078,548.308 332.308,531.692 				"/>
			</g>
			<g>
				<polygon fill="#F46100" points="348.923,664.615 365.539,614.769 348.923,614.769 				"/>
			</g>
			<g>
				<polygon fill="#E35900" points="365.539,614.769 332.308,531.692 348.923,614.769 				"/>
			</g>
			<g>
				<polygon fill="#FF8F19" points="332.308,531.692 382.154,531.692 365.539,614.769 				"/>
			</g>
			<g>
				<polygon fill="#F97304" points="365.539,614.769 382.154,531.692 398.769,531.692 				"/>
			</g>
			<g>
				<polygon fill="#E15200" points="365.539,614.769 415.385,631.385 398.769,531.692 				"/>
			</g>
			<g>
				<polygon fill="#D84F00" points="348.923,664.615 415.385,631.385 365.539,614.769 				"/>
			</g>
			<g>
				<polygon fill="#DA4300" points="415.385,631.385 448.616,614.769 398.769,531.692 				"/>
			</g>
			<g>
				<polygon fill="#E85209" points="548.309,581.538 631.385,581.538 731.078,515.076 				"/>
			</g>
			<g>
				<polygon fill="#FF761C" points="548.309,581.538 614.77,631.385 631.385,581.538 				"/>
			</g>
			<g>
				<polygon fill="#D23F00" points="614.77,631.385 731.076,598.154 631.385,581.538 				"/>
			</g>
			<g>
				<polygon fill="#D33700" points="731.078,515.076 731.076,598.154 631.385,581.538 				"/>
			</g>
			<g>
				<polygon fill="#E64F00" points="515.078,681.23 614.77,631.385 548.309,581.538 				"/>
			</g>
			<g>
				<polygon fill="#E74E02" points="731.076,598.154 814.154,531.692 731.078,515.076 				"/>
			</g>
			<g>
				<polygon fill="#E24A04" points="814.154,531.692 797.539,481.846 731.078,515.076 				"/>
			</g>
			<g>
				<polygon fill="#FD7C0D" points="814.154,531.692 880.615,415.385 797.539,481.846 				"/>
			</g>
			<g>
				<polygon fill="#E84800" points="731.076,598.154 747.693,664.615 814.154,531.692 				"/>
			</g>
			<g>
				<polygon fill="#E85B00" points="747.693,664.615 731.076,598.154 697.846,648 				"/>
			</g>
			<g>
				<polygon fill="#E15300" points="697.846,648 614.77,631.385 731.076,598.154 				"/>
			</g>
			<g>
				<polygon fill="#F56600" points="697.846,648 664.615,714.462 747.693,664.615 				"/>
			</g>
			<g>
				<polygon fill="#D84800" points="664.615,714.462 614.77,631.385 697.846,648 				"/>
			</g>
			<g>
				<polygon fill="#EA6300" points="664.615,714.462 614.77,631.385 581.539,681.23 				"/>
			</g>
			<g>
				<polygon fill="#F27601" points="664.615,714.462 515.078,714.462 581.539,681.23 				"/>
			</g>
			<g>
				<polygon fill="#FE6C16" points="614.77,631.385 515.078,681.23 581.539,681.23 				"/>
			</g>
			<g>
				<polygon fill="#F77309" points="515.078,714.462 515.078,681.23 581.539,681.23 				"/>
			</g>
			<g>
				<polygon fill="#F46100" points="299.078,631.385 332.308,714.462 348.923,664.615 				"/>
			</g>
			<g>
				<polygon fill="#E26200" points="332.308,714.462 415.385,631.385 348.923,664.615 				"/>
			</g>
			<g>
				<polygon fill="#FF8111" points="299.078,631.385 265.846,697.846 299.078,714.462 				"/>
			</g>
			<g>
				<polygon fill="#F67700" points="299.078,714.462 299.078,631.385 332.308,714.462 				"/>
			</g>
			<g>
				<polygon fill="#FF8511" points="299.078,714.462 332.308,764.308 332.308,714.462 				"/>
			</g>
			<g>
				<polygon fill="#F76800" points="332.308,764.308 265.846,697.846 299.078,714.462 				"/>
			</g>
			<g>
				<polygon fill="#FF8512" points="216,681.23 249.231,747.692 265.846,697.846 				"/>
			</g>
			<g>
				<polygon fill="#F69328" points="216,681.23 265.846,697.846 299.078,631.385 				"/>
			</g>
			<g>
				<polyline fill="#F26D00" points="299.078,797.538 332.308,764.308 265.846,697.846 299.078,797.538 299.078,797.538 				"/>
			</g>
			<g>
				<polygon fill="#F68300" points="880.615,415.385 880.615,498.461 814.154,531.692 				"/>
			</g>
			<g>
				<polygon fill="#FB821A" points="880.615,498.461 864,598.154 847.385,548.308 				"/>
			</g>
			<g>
				<polygon fill="#F96E05" points="847.385,548.308 814.154,531.692 880.615,498.461 				"/>
			</g>
			<g>
				<polygon fill="#FF6A10" points="847.385,548.308 797.539,614.77 864,598.154 				"/>
			</g>
			<g>
				<polygon fill="#FB5E11" points="797.539,614.77 814.154,531.692 847.385,548.308 				"/>
			</g>
			<g>
				<polygon fill="#E45A00" points="814.154,531.692 797.539,614.77 747.693,664.615 				"/>
			</g>
			<g>
				<polygon fill="#F36007" points="864,598.154 830.77,697.846 797.539,614.77 				"/>
			</g>
			<g>
				<polygon fill="#F46800" points="830.77,697.846 747.693,664.615 797.539,614.77 				"/>
			</g>
			<g>
				<polygon fill="#DB4F00" points="415.385,631.385 432,681.23 448.616,614.769 				"/>
			</g>
			<g>
				<polygon fill="#FF9332" points="432,681.23 332.308,714.462 415.385,631.385 				"/>
			</g>
			<g>
				<polygon fill="#E1510C" points="432,681.23 481.846,731.077 448.616,614.769 				"/>
			</g>
			<g>
				<polygon fill="#D84100" points="481.846,731.077 515.078,681.23 448.616,614.769 				"/>
			</g>
			<g>
				<polygon fill="#F36806" points="481.846,731.077 515.078,797.538 515.078,681.23 				"/>
			</g>
			<g>
				<polygon fill="#F55C0E" points="332.308,714.462 332.308,764.308 398.769,731.077 				"/>
			</g>
			<g>
				<polygon fill="#E76403" points="398.769,731.077 432,681.23 332.308,714.462 				"/>
			</g>
			<g>
				<polygon fill="#F57A11" points="398.769,731.077 481.846,731.077 432,681.23 				"/>
			</g>
			<g>
				<polygon fill="#E75301" points="398.769,731.077 432,814.154 332.308,764.308 				"/>
			</g>
			<path fill="none" stroke="#FFFFFF" stroke-miterlimit="10" d="M448.616,797.538"/>
			<g>
				<polygon fill="#ED6300" points="432,814.154 481.846,731.077 398.769,731.077 				"/>
			</g>
			<g>
				<polygon fill="#FF7311" points="432,814.154 365.539,814.154 332.308,764.308 				"/>
			</g>
			<g>
				<polygon fill="#F45D04" points="365.539,814.154 299.078,797.538 332.308,764.308 				"/>
			</g>
			<g>
				<polygon fill="#F86700" points="365.539,814.154 415.384,847.385 432,814.154 				"/>
			</g>
			<g>
				<polygon fill="#F75D07" points="415.384,847.385 481.846,864 498.463,830.77 				"/>
			</g>
			<g>
				<polygon fill="#E95205" points="498.463,830.77 481.846,731.077 415.384,847.385 				"/>
			</g>
			<g>
				<polygon fill="#ED5100" points="481.846,864 548.309,864 498.463,830.77 				"/>
			</g>
			<g>
				<polygon fill="#F45E0B" points="548.309,864 481.846,731.077 498.463,830.77 				"/>
			</g>
			<g>
				<polygon fill="#FA6816" points="515.078,714.462 548.309,764.308 515.078,797.538 				"/>
			</g>
			<g>
				<polygon fill="#F25B00" points="548.309,764.308 548.309,864 515.078,797.538 				"/>
			</g>
			<g>
				<polygon fill="#F66400" points="548.309,764.308 598.154,714.462 515.078,714.462 				"/>
			</g>
			<g>
				<polygon fill="#F16200" points="598.154,714.462 548.309,864 548.309,764.308 				"/>
			</g>
			<g>
				<polygon fill="#EC5401" points="664.615,714.462 631.385,797.538 598.154,714.462 				"/>
			</g>
			<g>
				<polygon fill="#FA6A05" points="631.385,797.538 598.154,714.462 598.154,830.77 				"/>
			</g>
			<g>
				<polygon fill="#E34D00" points="598.154,830.77 648,847.385 631.385,797.538 				"/>
			</g>
			<g>
				<polygon fill="#E14F00" points="648,847.385 664.615,714.462 631.385,797.538 				"/>
			</g>
			<g>
				<polygon fill="#F65A11" points="648,847.385 548.309,864 598.154,830.77 				"/>
			</g>
			<g>
				<polygon fill="#ED5409" points="598.154,830.77 598.154,714.462 548.309,864 				"/>
			</g>
			<g>
				<polygon fill="#DC4800" points="664.615,714.462 697.846,780.923 714.461,714.462 				"/>
			</g>
			<g>
				<polygon fill="#F56000" points="714.461,714.462 747.693,664.615 664.615,714.462 				"/>
			</g>
			<g>
				<polygon fill="#E04900" points="697.846,780.923 764.309,731.077 714.461,714.462 				"/>
			</g>
			<g>
				<polygon fill="#F96E03" points="764.309,731.077 747.693,664.615 714.461,714.462 				"/>
			</g>
			<g>
				<polygon fill="#FB7E04" points="764.309,731.077 830.77,697.846 747.693,664.615 				"/>
			</g>
			<g>
				<polygon fill="#F36100" points="697.846,780.923 648,847.385 664.615,714.462 				"/>
			</g>
			<g>
				<polygon fill="#D63D00" points="648,847.385 714.461,797.538 697.846,780.923 				"/>
			</g>
			<g>
				<polygon fill="#EC5800" points="714.461,797.538 780.924,764.308 697.846,780.923 				"/>
			</g>
			<g>
				<polygon fill="#F96F02" points="697.846,780.923 764.309,731.077 780.924,764.308 				"/>
			</g>
			<g>
				<polygon fill="#F76301" points="780.924,764.308 830.77,697.846 764.309,731.077 				"/>
			</g>
			<g>
				<polygon fill="#EF6500" points="398.769,531.692 332.308,531.692 299.078,515.077 				"/>
			</g>
			<g>
				<polygon fill="#F25E08" points="166.154,531.692 299.078,515.077 249.231,531.692 				"/>
			</g>
			<g>
				<polygon fill="#DA4900" points="299.078,631.385 299.078,548.308 299.078,515.077 282.462,548.308 				"/>
			</g>
			<g>
				<polygon fill="#F16006" points="299.078,515.077 299.078,548.308 332.308,531.692 				"/>
			</g>
			<g>
				<polygon fill="#F16006" points="282.462,548.308 299.078,515.077 249.231,531.692 				"/>
			</g>
			<g>
				<polygon fill="#F87A00" points="299.078,797.538 249.231,747.692 265.846,697.846 				"/>
			</g>
			<g>
				<polygon fill="#E95205" points="481.846,731.077 415.384,847.385 432,814.154 				"/>
			</g>
			<g>
				<polygon fill="#E1510C" points="299.078,797.538 415.384,847.385 365.539,814.154 				"/>
			</g>
			<g>
				<polygon fill="#D84800" points="648,847.385 780.924,764.308 714.461,797.538 				"/>
			</g>
			<g>
				<polygon fill="#F9A64E" points="166.154,598.153 249.231,747.692 216,681.23 				"/>
			</g>
			<g>
				<polygon fill="#E95300" points="282.462,232.615 365.539,166.154 332.308,199.385 				"/>
			</g>
			<g>
				<polygon fill="#EC7D15" points="166.154,398.769 149.539,531.692 166.154,531.692 				"/>
			</g>
			<g>
				<polygon fill="#F97304" points="149.539,531.692 166.154,598.153 166.154,531.692 				"/>
			</g>
		</g>
	</g>
</g>
</svg>
